Coordinates
nRows=5
nColumns=38

# SIMM Motion File Header:
name Coordinates
datacolumns 38
datarows 5
otherdata 1
range 1.51200000000000000000 1.51600000000000000000

Units are S.I. units (second, meters, Newtons, ...)
Angles are in degrees.

endheader
time	pelvis_tilt	pelvis_list	pelvis_rotation	pelvis_tx	pelvis_ty	pelvis_tz	hip_flexion_r	hip_adduction_r	hip_rotation_r	knee_angle_r	ankle_angle_r	subtalar_angle_r	mtp_angle_r	hip_flexion_l	hip_adduction_l	hip_rotation_l	knee_angle_l	ankle_angle_l	subtalar_angle_l	mtp_angle_l	lumbar_extension	lumbar_bending	lumbar_rotation	arm_flex_r	arm_add_r	arm_rot_r	elbow_flex_r	pro_sup_r	wrist_flex_r	wrist_dev_r	arm_flex_l	arm_add_l	arm_rot_l	elbow_flex_l	pro_sup_l	wrist_flex_l	wrist_dev_l
      1.51200000000000000000	     -4.96587039014023720000	     -0.45631334307598048000	     -1.59146102936665270000	      0.80731194280895302000	      1.05242038895146830000	     -0.46184343621782892000	     19.56453874731512200000	      1.02064418166859030000	     -2.63932115709957090000	     -8.82684624556563690000	    -13.31322889790167400000	      0.00000000000000000000	      0.00000000000000000000	     -1.30017829697836930000	     -1.07188134413368790000	     -4.89026300351584900000	    -39.25028390340046500000	    -25.15926308498921000000	      0.00000000000000000000	      0.00000000000000000000	     -3.52978410200168650000	      2.29793070159915970000	    -14.15955188129402000000	    -32.00428615318242000000	    -21.00224985820770100000	      1.14850304427254880000	    104.29639022428307000000	     74.93729763167807800000	      0.00000000000000000000	      0.00000000000000000000	     -9.04031606252121380000	    -35.01305019229253200000	     19.99893459155137200000	    125.00093710635818000000	     79.81277725990727800000	      0.00000000000000000000	      0.00000000000000000000
      1.51299999999999990000	     -4.97664759221812500000	     -0.48013065452025555000	     -1.60432404655759390000	      0.80734052499419084000	      1.05202662053083480000	     -0.46165868443050828000	     19.62389951357588900000	      1.07324287004324240000	     -2.67203421848148230000	     -8.95742320315679660000	    -13.45913410949991200000	      0.00000000000000000075	     -0.00000000000000000015	     -1.16240789530442750000	     -1.10955506947010710000	     -4.83415209899480390000	    -39.63312517143906900000	    -25.13364834260808000000	      0.00000000000000000006	      0.00000000000000000071	     -3.50855406688446530000	      2.34141420300538440000	    -14.12749518607270500000	    -31.97386645172353400000	    -20.97274457948830300000	      1.10596956981476800000	    104.25952064870218000000	     74.91308621923407400000	     -0.00000000000000000001	     -0.00000000000000000030	     -9.06907814301368020000	    -34.99389012223120000000	     20.03123403918631600000	    124.89364462858224000000	     79.85762538718812200000	      0.00000000000000000002	     -0.00000000000000000064
      1.51400000000000000000	     -4.98573273114926780000	     -0.50442337523933456000	     -1.61682055046181780000	      0.80737008523811093000	      1.05162612377765700000	     -0.46147663748531986000	     19.68190935273277700000	      1.12596422254386370000	     -2.70196841317101950000	     -9.09437091491057000000	    -13.60174555696806600000	      0.00000000000000000244	     -0.00000000000000000120	     -1.02542371462510640000	     -1.14705028712801700000	     -4.77768541993695100000	    -40.01683219355441400000	    -25.10572347582767300000	      0.00000000000000000026	      0.00000000000000000270	     -3.48904842418849180000	      2.38587425297787000000	    -14.09541177339334600000	    -31.94193782920439200000	    -20.94425804905881000000	      1.06472564057176950000	    104.22202693263347000000	     74.88923260690636100000	     -0.00000000000000000016	     -0.00000000000000000007	     -9.09875423410457000000	    -34.97360409898951900000	     20.06304543572854700000	    124.78408343810722000000	     79.89953098486799400000	      0.00000000000000000111	     -0.00000000000000000120
      1.51499999999999990000	     -4.99305188179308330000	     -0.52915763755683543000	     -1.62894972082116870000	      0.80740071971336480000	      1.05121901763750140000	     -0.46129733076786517000	     19.73845256141574500000	      1.17875866145440370000	     -2.72919334011443930000	     -9.23765493739592710000	    -13.74044205759389900000	      0.00000000000000000325	     -0.00000000000000000221	     -0.88935829165668034000	     -1.18434611745804190000	     -4.72094458719719780000	    -40.40128949703014900000	    -25.07551072620586300000	     -0.00000000000000000051	      0.00000000000000000486	     -3.47134085730118300000	      2.43127655335095390000	    -14.06329979502753600000	    -31.90851369647690200000	    -20.91680425303189100000	      1.02476056527464720000	    104.18393654872982000000	     74.86577770793610400000	     -0.00000000000000000014	     -0.00000000000000000037	     -9.12935427186500270000	    -34.95219554086802600000	     20.09436023736806800000	    124.67226718604645000000	     79.93851002776347100000	      0.00000000000000000332	     -0.00000000000000000265
      1.51600000000000000000	     -4.99851657554506980000	     -0.55429068773701695000	     -1.64071090675920180000	      0.80743253687091954000	      1.05080544676410550000	     -0.46112079741588713000	     19.79339188354212500000	      1.23156526259076050000	     -2.75378190996145020000	     -9.38723176813010160000	    -13.87448008729951500000	      0.00000000000000000218	     -0.00000000000000000267	     -0.75436408343869144000	     -1.22141749900767270000	     -4.66401881395370220000	    -40.78636731648883500000	    -25.04312876359177400000	     -0.00000000000000000181	      0.00000000000000000770	     -3.45552035547887740000	      2.47757587229679200000	    -14.03115645398660000000	    -31.87360941746456800000	    -20.89039538224278700000	      0.98606201966151774000	    104.14528285274643000000	     74.84277265095424500000	      0.00000000000000000027	     -0.00000000000000000008	     -9.16089037275529710000	    -34.92967420849666400000	     20.12516951043911800000	    124.55821530715222000000	     79.97458623451576900000	      0.00000000000000000495	     -0.00000000000000000585
